<svg xmlns="http://www.w3.org/2000/svg" width="2200" height="1200" viewBox="0 0 2200 1200">
  <defs>
    <linearGradient id="bg" x1="0" x2="1" y1="0" y2="1">
      <stop offset="0" stop-color="#020817"/>
      <stop offset="0.45" stop-color="#061b36"/>
      <stop offset="1" stop-color="#010713"/>
    </linearGradient>
    <radialGradient id="glow1" cx="78%" cy="24%" r="48%">
      <stop offset="0" stop-color="#0A84FF" stop-opacity="0.55"/>
      <stop offset="0.45" stop-color="#0A84FF" stop-opacity="0.16"/>
      <stop offset="1" stop-color="#0A84FF" stop-opacity="0"/>
    </radialGradient>
    <radialGradient id="glow2" cx="16%" cy="84%" r="42%">
      <stop offset="0" stop-color="#5AC8FF" stop-opacity="0.38"/>
      <stop offset="0.48" stop-color="#5AC8FF" stop-opacity="0.12"/>
      <stop offset="1" stop-color="#5AC8FF" stop-opacity="0"/>
    </radialGradient>
    <linearGradient id="glass" x1="0" x2="1">
      <stop offset="0" stop-color="#0A84FF" stop-opacity="0.18"/>
      <stop offset="0.5" stop-color="#ffffff" stop-opacity="0.08"/>
      <stop offset="1" stop-color="#5AC8FF" stop-opacity="0.22"/>
    </linearGradient>
    <filter id="blur"><feGaussianBlur stdDeviation="42"/></filter>
  </defs>
  <rect width="2200" height="1200" fill="url(#bg)"/>
  <rect width="2200" height="1200" fill="url(#glow1)"/>
  <rect width="2200" height="1200" fill="url(#glow2)"/>
  <g opacity="0.75">
    <polygon points="0,980 2200,720 2200,1200 0,1200" fill="#010713" opacity="0.88"/>
    <polygon points="0,880 2200,640 2200,730 0,970" fill="#0A84FF" opacity="0.08"/>
  </g>
  <g transform="translate(210 255)" opacity="0.78">
    <rect x="0" y="350" width="140" height="520" rx="12" fill="#061b36"/>
    <rect x="190" y="220" width="170" height="650" rx="14" fill="#082246"/>
    <rect x="415" y="90" width="215" height="780" rx="18" fill="#061b36"/>
    <rect x="690" y="270" width="180" height="600" rx="16" fill="#09264d"/>
    <rect x="930" y="20" width="250" height="850" rx="20" fill="#061b36"/>
    <rect x="1240" y="190" width="190" height="680" rx="16" fill="#082246"/>
    <rect x="1490" y="315" width="155" height="555" rx="13" fill="#061b36"/>
    <rect x="1715" y="135" width="230" height="735" rx="18" fill="#09264d"/>
  </g>
  <g transform="translate(210 255)" opacity="0.45">
    <rect x="28" y="385" width="18" height="430" fill="url(#glass)"/>
    <rect x="84" y="385" width="18" height="430" fill="url(#glass)"/>
    <rect x="232" y="260" width="18" height="565" fill="url(#glass)"/>
    <rect x="306" y="260" width="18" height="565" fill="url(#glass)"/>
    <rect x="470" y="145" width="20" height="665" fill="url(#glass)"/>
    <rect x="560" y="145" width="20" height="665" fill="url(#glass)"/>
    <rect x="745" y="310" width="18" height="515" fill="url(#glass)"/>
    <rect x="1012" y="75" width="22" height="740" fill="url(#glass)"/>
    <rect x="1124" y="75" width="22" height="740" fill="url(#glass)"/>
    <rect x="1305" y="235" width="18" height="590" fill="url(#glass)"/>
    <rect x="1775" y="190" width="20" height="635" fill="url(#glass)"/>
    <rect x="1875" y="190" width="20" height="635" fill="url(#glass)"/>
  </g>
  <path d="M-50 720 C440 520 710 760 1180 520 C1540 335 1790 430 2260 210" stroke="#5AC8FF" stroke-opacity="0.18" stroke-width="8" fill="none" filter="url(#blur)"/>
  <path d="M-40 820 C480 630 720 820 1190 610 C1560 445 1840 520 2260 320" stroke="#0A84FF" stroke-opacity="0.16" stroke-width="10" fill="none" filter="url(#blur)"/>
</svg>